<mxfile host="app.diagrams.net" modified="2021-03-10T15:11:50.909Z" agent="5.0 (Macintosh; Intel Mac OS X 10_14_6) AppleWebKit/537.36 (KHTML, like Gecko) Chrome/88.0.4324.192 Safari/537.36" etag="7CdjzjmR8IK4ywz7o5GD" version="14.4.6" type="github">
  <diagram id="IEUmdi3ygn2L4brvdW_h" name="Page-1">
    <mxGraphModel dx="1517" dy="927" grid="1" gridSize="10" guides="1" tooltips="1" connect="1" arrows="1" fold="1" page="1" pageScale="1" pageWidth="827" pageHeight="1169" math="0" shadow="0">
      <root>
        <mxCell id="0" />
        <mxCell id="1" parent="0" />
        <mxCell id="XUyXwkfdlabv9EDxGXWB-1" value="demo&lt;br&gt;" style="rounded=0;whiteSpace=wrap;html=1;" vertex="1" parent="1">
          <mxGeometry x="350" y="440" width="120" height="60" as="geometry" />
        </mxCell>
      </root>
    </mxGraphModel>
  </diagram>
</mxfile>
